<?xml version="1.0" encoding="iso-8859-1"?>
<!-- Uploaded to: SVG Repo, www.svgrepo.com, Generator: SVG Repo Mixer Tools -->
<svg height="800px" width="800px" version="1.1" id="Layer_1" xmlns="http://www.w3.org/2000/svg" xmlns:xlink="http://www.w3.org/1999/xlink" 
	 viewBox="0 0 512 512" xml:space="preserve">
<path style="fill:#D5DCED;" d="M244.337,38.229L44.298,214.263c-5.714,5.027-8.988,12.27-8.988,19.881v235.2H476.69v-235.2
	c0-7.61-3.274-14.854-8.988-19.881L267.663,38.229C260.995,32.361,251.005,32.361,244.337,38.229z"/>
<polygon style="fill:#FFF082;" points="256,72.103 70.621,235.237 70.621,469.344 441.379,469.344 441.379,235.237 "/>
<polygon style="fill:#FFF8C1;" points="256,116.241 105.931,248.302 105.931,469.344 406.069,469.344 406.069,248.302 "/>
<polygon style="fill:#FFFCE6;" points="256,160.379 141.241,261.366 141.241,469.344 370.759,469.344 370.759,261.366 "/>
<path style="fill:#9BF57D;" d="M123.689,263.86c-0.729-3.747,2.528-7.004,6.274-6.274c17.184,3.343,59.53,13.757,84.462,38.689
	c17.579,17.579,20.179,43.481,5.806,57.854c-14.372,14.372-40.275,11.773-57.854-5.806
	C137.447,323.391,127.032,281.044,123.689,263.86z"/>
<path style="fill:#8CE16E;" d="M162.378,348.322c17.579,17.579,43.481,20.179,57.854,5.806l-95.084-95.084
	c-1.192,1.192-1.823,2.942-1.459,4.815C127.032,281.044,137.447,323.39,162.378,348.322z"/>
<path style="fill:#9BF57D;" d="M369.681,237.248c0.6-3.087-2.082-5.771-5.17-5.17c-14.159,2.754-49.05,11.336-69.592,31.878
	c-14.485,14.485-16.627,35.827-4.783,47.669c11.842,11.842,33.184,9.7,47.669-4.783
	C358.345,286.299,366.926,251.408,369.681,237.248z"/>
<path style="fill:#8CE16E;" d="M364.51,232.079c-14.159,2.754-49.05,11.335-69.592,31.878
	c-14.484,14.484-16.626,35.827-4.783,47.669l78.345-78.345C367.496,232.298,366.053,231.777,364.51,232.079z"/>
<path style="fill:#7DC86E;" d="M332.862,268.896c-3.448-3.448-9.035-3.448-12.483,0L265.275,324
	c-11.671,11.672-18.102,27.189-18.102,43.698v0.888l-64.38-64.38c-3.448-3.448-9.035-3.448-12.483,0
	c-3.448,3.448-3.448,9.035,0,12.483l76.863,76.862v75.794h17.655V367.699c0-11.794,4.595-22.879,12.931-31.215l55.103-55.104
	C336.31,277.931,336.31,272.345,332.862,268.896z"/>
<path style="fill:#AFB9D2;" d="M503.172,478.172H8.828c-4.879,0-8.828-3.948-8.828-8.828s3.948-8.828,8.828-8.828h494.345
	c4.879,0,8.828,3.948,8.828,8.828S508.052,478.172,503.172,478.172z"/>
</svg>